<?xml version="1.0" encoding="utf-8" ?>
<svg baseProfile="full" height="10000px" version="1.1" width="10000px" xmlns="http://www.w3.org/2000/svg" xmlns:ev="http://www.w3.org/2001/xml-events" xmlns:xlink="http://www.w3.org/1999/xlink"><defs><clipPath id="border_clip"><rect height="10000" width="10000" x="0" y="0" /></clipPath></defs><polyline clip-path="url(#border_clip)" fill="none" points="4960.5,5200.5 4920.5,5200.5 4920.5,5160.5 4960.5,5160.5 4960.5,5120.5 5000.5,5120.5 5000.5,5160.5 4960.5,5160.5 4960.5,5200.5 5000.5,5200.5 5000.5,5240.5 5040.5,5240.5 5040.5,5200.5 5080.5,5200.5 5080.5,5240.5 5040.5,5240.5 5040.5,5280.5 5080.5,5280.5 5080.5,5320.5 5040.5,5320.5 5040.5,5360.5 5000.5,5360.5 5000.5,5320.5 4960.5,5320.5 4960.5,5360.5 5000.5,5360.5 5000.5,5400.5 5040.5,5400.5 5040.5,5360.5 5080.5,5360.5 5080.5,5400.5 5120.5,5400.5 5120.5,5360.5 5080.5,5360.5 5080.5,5320.5 5120.5,5320.5 5120.5,5280.5 5160.5,5280.5 5160.5,5320.5 5200.5,5320.5 5200.5,5280.5 5160.5,5280.5 5160.5,5240.5" stroke="black" stroke-linecap="round" stroke-width="10" /><polyline clip-path="url(#border_clip)" fill="none" points="5160.5,5240.5 5120.5,5240.5 5120.5,5280.5 5080.5,5280.5 5080.5,5240.5 5120.5,5240.5 5120.5,5200.5 5080.5,5200.5 5080.5,5160.5 5120.5,5160.5 5120.5,5120.5 5160.5,5120.5 5160.5,5160.5 5120.5,5160.5 5120.5,5200.5 5160.5,5200.5 5160.5,5240.5 5200.5,5240.5 5200.5,5200.5 5240.5,5200.5 5240.5,5240.5 5280.5,5240.5 5280.5,5200.5 5240.5,5200.5 5240.5,5160.5 5280.5,5160.5 5280.5,5120.5 5320.5,5120.5 5320.5,5160.5 5280.5,5160.5 5280.5,5200.5 5320.5,5200.5 5320.5,5240.5 5360.5,5240.5 5360.5,5200.5 5400.5,5200.5 5400.5,5240.5 5360.5,5240.5 5360.5,5280.5 5400.5,5280.5 5400.5,5320.5 5360.5,5320.5 5360.5,5360.5" stroke="black" stroke-linecap="round" stroke-width="10" /><polyline clip-path="url(#border_clip)" fill="none" points="5360.5,5360.5 5320.5,5360.5 5320.5,5320.5 5280.5,5320.5 5280.5,5360.5 5320.5,5360.5 5320.5,5400.5 5360.5,5400.5 5360.5,5360.5 5400.5,5360.5 5400.5,5400.5 5440.5,5400.5 5440.5,5360.5 5400.5,5360.5 5400.5,5320.5 5440.5,5320.5 5440.5,5280.5 5480.5,5280.5 5480.5,5320.5 5520.5,5320.5 5520.5,5280.5 5480.5,5280.5 5480.5,5240.5 5440.5,5240.5 5440.5,5280.5 5400.5,5280.5 5400.5,5240.5 5440.5,5240.5 5440.5,5200.5 5400.5,5200.5 5400.5,5160.5 5440.5,5160.5 5440.5,5120.5 5480.5,5120.5 5480.5,5160.5 5520.5,5160.5 5520.5,5120.5 5480.5,5120.5 5480.5,5080.5 5440.5,5080.5 5440.5,5120.5 5400.5,5120.5 5400.5,5080.5" stroke="black" stroke-linecap="round" stroke-width="10" /><polyline clip-path="url(#border_clip)" fill="none" points="5400.5,5080.5 5360.5,5080.5 5360.5,5120.5 5400.5,5120.5 5400.5,5160.5 5360.5,5160.5 5360.5,5200.5 5320.5,5200.5 5320.5,5160.5 5360.5,5160.5 5360.5,5120.5 5320.5,5120.5 5320.5,5080.5 5280.5,5080.5 5280.5,5120.5 5240.5,5120.5 5240.5,5080.5 5280.5,5080.5 5280.5,5040.5 5240.5,5040.5 5240.5,5000.5 5280.5,5000.5 5280.5,4960.5 5320.5,4960.5 5320.5,5000.5 5280.5,5000.5 5280.5,5040.5 5320.5,5040.5 5320.5,5080.5 5360.5,5080.5 5360.5,5040.5 5400.5,5040.5 5400.5,5080.5 5440.5,5080.5 5440.5,5040.5 5400.5,5040.5 5400.5,5000.5 5440.5,5000.5 5440.5,4960.5 5480.5,4960.5 5480.5,5000.5 5520.5,5000.5 5520.5,4960.5" stroke="black" stroke-linecap="round" stroke-width="10" /><polyline clip-path="url(#border_clip)" fill="none" points="5520.5,4960.5 5480.5,4960.5 5480.5,4920.5 5440.5,4920.5 5440.5,4960.5 5400.5,4960.5 5400.5,4920.5 5440.5,4920.5 5440.5,4880.5 5400.5,4880.5 5400.5,4840.5 5440.5,4840.5 5440.5,4800.5 5480.5,4800.5 5480.5,4840.5 5440.5,4840.5 5440.5,4880.5 5480.5,4880.5 5480.5,4920.5 5520.5,4920.5 5520.5,4880.5 5560.5,4880.5 5560.5,4920.5 5600.5,4920.5 5600.5,4880.5 5560.5,4880.5 5560.5,4840.5 5600.5,4840.5 5600.5,4800.5 5640.5,4800.5 5640.5,4840.5 5600.5,4840.5 5600.5,4880.5 5640.5,4880.5 5640.5,4920.5 5680.5,4920.5 5680.5,4880.5 5720.5,4880.5 5720.5,4920.5 5680.5,4920.5 5680.5,4960.5 5720.5,4960.5 5720.5,5000.5" stroke="black" stroke-linecap="round" stroke-width="10" /><polyline clip-path="url(#border_clip)" fill="none" points="5720.5,5000.5 5680.5,5000.5 5680.5,5040.5 5640.5,5040.5 5640.5,5000.5 5600.5,5000.5 5600.5,5040.5 5640.5,5040.5 5640.5,5080.5 5680.5,5080.5 5680.5,5040.5 5720.5,5040.5 5720.5,5080.5 5760.5,5080.5 5760.5,5040.5 5720.5,5040.5 5720.5,5000.5 5760.5,5000.5 5760.5,4960.5 5800.5,4960.5 5800.5,5000.5 5840.5,5000.5 5840.5,4960.5 5800.5,4960.5 5800.5,4920.5 5760.5,4920.5 5760.5,4960.5 5720.5,4960.5 5720.5,4920.5 5760.5,4920.5 5760.5,4880.5 5720.5,4880.5 5720.5,4840.5 5760.5,4840.5 5760.5,4800.5 5800.5,4800.5 5800.5,4840.5 5840.5,4840.5 5840.5,4800.5 5800.5,4800.5 5800.5,4760.5 5760.5,4760.5 5760.5,4800.5" stroke="black" stroke-linecap="round" stroke-width="10" /><polyline clip-path="url(#border_clip)" fill="none" points="5760.5,4800.5 5720.5,4800.5 5720.5,4760.5 5680.5,4760.5 5680.5,4800.5 5720.5,4800.5 5720.5,4840.5 5680.5,4840.5 5680.5,4880.5 5640.5,4880.5 5640.5,4840.5 5680.5,4840.5 5680.5,4800.5 5640.5,4800.5 5640.5,4760.5 5600.5,4760.5 5600.5,4800.5 5560.5,4800.5 5560.5,4760.5 5600.5,4760.5 5600.5,4720.5 5560.5,4720.5 5560.5,4680.5 5600.5,4680.5 5600.5,4640.5 5640.5,4640.5 5640.5,4680.5 5680.5,4680.5 5680.5,4640.5 5640.5,4640.5 5640.5,4600.5 5600.5,4600.5 5600.5,4640.5 5560.5,4640.5 5560.5,4600.5 5520.5,4600.5 5520.5,4640.5 5560.5,4640.5 5560.5,4680.5 5520.5,4680.5 5520.5,4720.5 5480.5,4720.5 5480.5,4680.5" stroke="black" stroke-linecap="round" stroke-width="10" /><polyline clip-path="url(#border_clip)" fill="none" points="5480.5,4680.5 5440.5,4680.5 5440.5,4720.5 5480.5,4720.5 5480.5,4760.5 5520.5,4760.5 5520.5,4720.5 5560.5,4720.5 5560.5,4760.5 5520.5,4760.5 5520.5,4800.5 5560.5,4800.5 5560.5,4840.5 5520.5,4840.5 5520.5,4880.5 5480.5,4880.5 5480.5,4840.5 5520.5,4840.5 5520.5,4800.5 5480.5,4800.5 5480.5,4760.5 5440.5,4760.5 5440.5,4800.5 5400.5,4800.499999999999 5400.5,4760.499999999999 5360.5,4760.499999999999 5360.5,4800.499999999999 5400.5,4800.499999999999 5400.5,4840.499999999999 5360.5,4840.499999999999 5360.5,4880.499999999999 5320.5,4880.499999999999 5320.5,4840.499999999999 5360.5,4840.499999999999 5360.5,4800.499999999999 5320.5,4800.499999999999 5320.5,4760.499999999999 5280.5,4760.499999999999 5280.5,4800.499999999999 5240.5,4800.499999999999 5240.5,4760.499999999999 5280.5,4760.499999999999 5280.5,4720.499999999999" stroke="black" stroke-linecap="round" stroke-width="10" /><polyline clip-path="url(#border_clip)" fill="none" points="5280.5,4720.499999999999 5240.5,4720.499999999999 5240.5,4680.499999999999 5280.5,4680.499999999999 5280.5,4640.499999999999 5320.5,4640.499999999999 5320.5,4680.499999999999 5280.5,4680.499999999999 5280.5,4720.499999999999 5320.5,4720.499999999999 5320.5,4760.499999999999 5360.5,4760.499999999999 5360.5,4720.499999999999 5400.5,4720.499999999999 5400.5,4760.499999999999 5440.5,4760.499999999999 5440.5,4720.499999999999 5400.5,4720.499999999999 5400.5,4680.499999999999 5440.5,4680.499999999999 5440.5,4640.499999999999 5480.5,4640.499999999999 5480.5,4680.499999999999 5520.5,4680.499999999999 5520.5,4640.499999999999 5480.5,4640.499999999999 5480.5,4600.499999999999 5440.5,4600.499999999999 5440.5,4640.499999999999 5400.5,4640.499999999999 5400.5,4600.499999999999 5440.5,4600.499999999999 5440.5,4560.499999999999 5400.5,4560.499999999999 5400.5,4520.499999999999 5440.5,4520.499999999999 5440.5,4480.499999999999 5480.5,4480.499999999999 5480.5,4520.499999999999 5520.5,4520.499999999999 5520.5,4480.499999999999 5480.5,4480.499999999999 5480.5,4440.499999999999" stroke="black" stroke-linecap="round" stroke-width="10" /><polyline clip-path="url(#border_clip)" fill="none" points="5480.5,4440.499999999999 5440.5,4440.499999999999 5440.5,4480.499999999999 5400.5,4480.499999999999 5400.5,4440.499999999999 5360.5,4440.499999999999 5360.5,4480.499999999999 5400.5,4480.499999999999 5400.5,4520.499999999999 5360.5,4520.499999999999 5360.5,4560.499999999999 5320.5,4560.499999999999 5320.5,4520.499999999999 5360.5,4520.499999999999 5360.5,4480.499999999999 5320.5,4480.499999999999 5320.5,4440.499999999999 5280.5,4440.499999999999 5280.5,4480.499999999999 5240.5,4480.499999999999 5240.5,4440.499999999999 5280.5,4440.499999999999 5280.5,4400.499999999999 5240.5,4400.499999999999 5240.5,4360.499999999999 5280.5,4360.499999999999 5280.5,4320.499999999999 5320.5,4320.499999999999 5320.5,4360.499999999999 5280.5,4360.499999999999 5280.5,4400.499999999999 5320.5,4400.499999999999 5320.5,4440.499999999999 5360.5,4440.499999999999 5360.5,4400.499999999999 5400.5,4400.499999999999 5400.5,4440.499999999999 5440.5,4440.499999999999 5440.5,4400.499999999999 5400.5,4400.499999999999 5400.5,4360.499999999999 5440.5,4360.499999999999 5440.5,4320.499999999999" stroke="black" stroke-linecap="round" stroke-width="10" /><polyline clip-path="url(#border_clip)" fill="none" points="5440.5,4320.499999999999 5480.5,4320.499999999999 5480.5,4360.499999999999 5520.5,4360.499999999999 5520.5,4320.499999999999 5480.5,4320.499999999999 5480.5,4280.499999999999 5440.5,4280.499999999999 5440.5,4320.499999999999 5400.5,4320.499999999999 5400.5,4280.499999999999 5440.5,4280.499999999999 5440.5,4240.499999999999 5400.5,4240.499999999999 5400.5,4200.499999999999 5440.5,4200.499999999999 5440.5,4160.499999999999 5480.5,4160.499999999999 5480.5,4200.499999999999 5440.5,4200.499999999999 5440.5,4240.499999999999 5480.5,4240.499999999999 5480.5,4280.499999999999 5520.5,4280.499999999999 5520.5,4240.499999999999 5560.5,4240.499999999999 5560.5,4280.499999999999 5600.5,4280.499999999999 5600.5,4240.499999999999 5560.5,4240.499999999999 5560.5,4200.499999999999 5600.5,4200.499999999999 5600.5,4160.499999999999 5640.5,4160.499999999999 5640.5,4200.499999999999 5600.5,4200.499999999999 5600.5,4240.499999999999 5640.5,4240.499999999999 5640.5,4280.499999999999 5680.5,4280.499999999999 5680.5,4240.499999999999 5720.5,4240.499999999999 5720.5,4280.499999999999" stroke="black" stroke-linecap="round" stroke-width="10" /><polyline clip-path="url(#border_clip)" fill="none" points="5720.5,4280.499999999999 5680.5,4280.499999999999 5680.5,4320.499999999999 5720.5,4320.499999999999 5720.5,4360.499999999999 5680.5,4360.499999999999 5680.5,4400.499999999999 5640.5,4400.499999999999 5640.5,4360.499999999999 5600.5,4360.499999999999 5600.5,4400.499999999999 5640.5,4400.499999999999 5640.5,4440.499999999999 5680.5,4440.499999999999 5680.5,4400.499999999999 5720.5,4400.499999999999 5720.5,4440.499999999999 5760.5,4440.499999999999 5760.5,4400.499999999999 5720.5,4400.499999999999 5720.5,4360.499999999999 5760.5,4360.499999999999 5760.5,4320.499999999999 5800.5,4320.499999999999 5800.5,4360.499999999999 5840.5,4360.499999999999 5840.5,4320.499999999999 5800.5,4320.499999999999 5800.5,4280.499999999999 5760.5,4280.499999999999 5760.5,4320.499999999999 5720.5,4320.499999999999 5720.5,4280.499999999999 5760.5,4280.499999999999 5760.5,4240.499999999999 5720.5,4240.499999999999 5720.5,4200.499999999999 5760.5,4200.499999999999 5760.5,4160.499999999999 5800.5,4160.499999999999 5800.5,4200.499999999999 5840.5,4200.499999999999 5840.5,4160.499999999999" stroke="black" stroke-linecap="round" stroke-width="10" /><polyline clip-path="url(#border_clip)" fill="none" points="5840.5,4160.499999999999 5800.5,4160.499999999999 5800.5,4120.499999999999 5760.5,4120.499999999999 5760.5,4160.499999999999 5720.5,4160.499999999999 5720.5,4120.499999999999 5680.5,4120.499999999999 5680.5,4160.499999999999 5720.5,4160.499999999999 5720.5,4200.499999999999 5680.5,4200.499999999999 5680.5,4240.499999999999 5640.5,4240.499999999999 5640.5,4200.499999999999 5680.5,4200.499999999999 5680.5,4160.499999999999 5640.5,4160.499999999999 5640.5,4120.499999999999 5600.5,4120.499999999999 5600.5,4160.499999999999 5560.5,4160.499999999999 5560.5,4120.499999999999 5600.5,4120.499999999999 5600.5,4080.4999999999995 5560.5,4080.4999999999995 5560.5,4040.4999999999995 5600.5,4040.4999999999995 5600.5,4000.4999999999995 5640.5,4000.4999999999995 5640.5,4040.4999999999995 5680.5,4040.4999999999995 5680.5,4000.4999999999995 5640.5,4000.4999999999995 5640.5,3960.4999999999995 5600.5,3960.4999999999995 5600.5,4000.4999999999995 5560.5,4000.4999999999995 5560.5,3960.4999999999995 5520.5,3960.4999999999995 5520.5,4000.4999999999995 5560.5,4000.4999999999995 5560.5,4040.4999999999995" stroke="black" stroke-linecap="round" stroke-width="10" /><polyline clip-path="url(#border_clip)" fill="none" points="5560.5,4040.4999999999995 5520.5,4040.4999999999995 5520.5,4080.4999999999995 5480.5,4080.4999999999995 5480.5,4040.4999999999995 5440.5,4040.4999999999995 5440.5,4080.4999999999995 5480.5,4080.4999999999995 5480.5,4120.5 5520.5,4120.5 5520.5,4080.4999999999995 5560.5,4080.4999999999995 5560.5,4120.5 5520.5,4120.5 5520.5,4160.5 5560.5,4160.5 5560.5,4200.5 5520.5,4200.5 5520.5,4240.5 5480.5,4240.5 5480.5,4200.5 5520.5,4200.5 5520.5,4160.5 5480.5,4160.5 5480.5,4120.5 5440.5,4120.5 5440.5,4160.5 5400.5,4160.5 5400.5,4120.5 5360.5,4120.5 5360.5,4160.5 5400.5,4160.5 5400.5,4200.5 5360.5,4200.5 5360.5,4240.5 5320.5,4240.5 5320.5,4200.5 5360.5,4200.5 5360.5,4160.5 5320.5,4160.5 5320.5,4120.5 5280.5,4120.5 5280.5,4160.5" stroke="black" stroke-linecap="round" stroke-width="10" /><polyline clip-path="url(#border_clip)" fill="none" points="5280.5,4160.5 5240.5,4160.5 5240.5,4120.5 5280.5,4120.5 5280.5,4080.4999999999995 5240.5,4080.4999999999995 5240.5,4040.4999999999995 5280.5,4040.4999999999995 5280.5,4000.4999999999995 5320.5,4000.4999999999995 5320.5,4040.4999999999995 5360.5,4040.4999999999995 5360.5,4000.4999999999995 5320.5,4000.4999999999995 5320.5,3960.4999999999995 5280.5,3960.4999999999995 5280.5,4000.4999999999995 5240.5,4000.4999999999995 5240.5,3960.4999999999995 5200.5,3960.4999999999995 5200.5,4000.4999999999995 5240.5,4000.4999999999995 5240.5,4040.4999999999995 5200.5,4040.4999999999995 5200.5,4080.4999999999995 5160.5,4080.4999999999995 5160.5,4040.4999999999995 5120.5,4040.4999999999995 5120.5,4080.4999999999995 5160.5,4080.4999999999995 5160.5,4120.5 5200.5,4120.5 5200.5,4080.4999999999995 5240.5,4080.4999999999995 5240.5,4120.5 5200.5,4120.5 5200.5,4160.5 5240.5,4160.5 5240.5,4200.5 5200.5,4200.5 5200.5,4240.5 5160.5,4240.5 5160.5,4200.5" stroke="black" stroke-linecap="round" stroke-width="10" /><polyline clip-path="url(#border_clip)" fill="none" points="5160.5,4200.5 5120.5,4200.5 5120.5,4240.5 5160.5,4240.5 5160.5,4280.5 5200.5,4280.5 5200.5,4240.5 5240.5,4240.5 5240.5,4280.5 5280.5,4280.5 5280.5,4240.5 5240.5,4240.5 5240.5,4200.5 5280.5,4200.5 5280.5,4160.5 5320.5,4160.5 5320.5,4200.5 5280.5,4200.5 5280.5,4240.5 5320.5,4240.5 5320.5,4280.5 5360.5,4280.5 5360.5,4240.5 5400.5,4240.5 5400.5,4280.5 5360.5,4280.5 5360.5,4320.5 5400.5,4320.5 5400.5,4360.5 5360.5,4360.5 5360.5,4400.5 5320.5,4400.5 5320.5,4360.5 5360.5,4360.5 5360.5,4320.5 5320.5,4320.5 5320.5,4280.5 5280.5,4280.5 5280.5,4320.5 5240.5,4320.5 5240.5,4280.5 5200.5,4280.5 5200.5,4320.5" stroke="black" stroke-linecap="round" stroke-width="10" /><polyline clip-path="url(#border_clip)" fill="none" points="5200.5,4320.5 5240.5,4320.5 5240.5,4360.5 5200.5,4360.5 5200.5,4400.5 5160.5,4400.5 5160.5,4360.5 5120.5,4360.5 5120.5,4400.5 5160.5,4400.5 5160.5,4440.5 5200.5,4440.5 5200.5,4400.5 5240.5,4400.5 5240.5,4440.5 5200.5,4440.5 5200.5,4480.5 5240.5,4480.5 5240.5,4520.5 5200.5,4520.5 5200.5,4560.5 5160.5,4560.5 5160.5,4520.5 5200.5,4520.5 5200.5,4480.5 5160.5,4480.5 5160.5,4440.5 5120.5,4440.5 5120.499999999999,4480.5 5080.499999999999,4480.5 5080.5,4440.5 5040.5,4440.5 5040.499999999999,4480.5 5080.499999999999,4480.5 5080.499999999999,4520.5 5040.499999999999,4520.5 5040.499999999999,4560.5 5000.499999999999,4560.5 5000.499999999999,4520.5 5040.499999999999,4520.5 5040.499999999999,4480.5 5000.499999999999,4480.5 5000.499999999999,4440.5" stroke="black" stroke-linecap="round" stroke-width="10" /><polyline clip-path="url(#border_clip)" fill="none" points="5000.499999999999,4440.5 4960.5,4440.5 4960.499999999999,4480.5 4920.499999999999,4480.5 4920.5,4440.5 4960.5,4440.5 4960.5,4400.5 4920.5,4400.5 4920.5,4360.5 4960.5,4360.5 4960.5,4320.5 5000.5,4320.5 5000.5,4360.5 4960.5,4360.5 4960.5,4400.5 5000.5,4400.5 5000.5,4440.5 5040.5,4440.5 5040.5,4400.5 5080.5,4400.5 5080.5,4440.5 5120.5,4440.5 5120.5,4400.5 5080.5,4400.5 5080.5,4360.5 5120.5,4360.5 5120.5,4320.5 5160.5,4320.5 5160.5,4360.5 5200.5,4360.5 5200.5,4320.5 5160.5,4320.5 5160.5,4280.5 5120.5,4280.5 5120.5,4320.5 5080.5,4320.5 5080.5,4280.5 5120.5,4280.5 5120.5,4240.5 5080.5,4240.5 5080.5,4200.5 5120.5,4200.5 5120.5,4160.5" stroke="black" stroke-linecap="round" stroke-width="10" /><polyline clip-path="url(#border_clip)" fill="none" points="5120.5,4160.5 5160.5,4160.5 5160.5,4200.5 5200.5,4200.5 5200.5,4160.5 5160.5,4160.5 5160.5,4120.5 5120.5,4120.5 5120.5,4160.5 5080.5,4160.5 5080.5,4120.5 5040.5,4120.5 5040.5,4160.5 5080.5,4160.5 5080.5,4200.5 5040.5,4200.5 5040.5,4240.5 5000.5,4240.5 5000.5,4200.5 5040.5,4200.5 5040.5,4160.5 5000.5,4160.5 5000.5,4120.5 4960.5,4120.5 4960.5,4160.5 4920.5,4160.5 4920.5,4120.5 4960.5,4120.5 4960.5,4080.4999999999995 4920.5,4080.4999999999995 4920.5,4040.4999999999995 4960.5,4040.4999999999995 4960.5,4000.4999999999995 5000.5,4000.4999999999995 5000.5,4040.4999999999995 5040.5,4040.4999999999995 5040.5,4000.4999999999995 5000.5,4000.4999999999995 5000.5,3960.4999999999995 4960.5,3960.4999999999995 4960.5,4000.4999999999995 4920.5,4000.4999999999995 4920.5,3960.4999999999995" stroke="black" stroke-linecap="round" stroke-width="10" /><polyline clip-path="url(#border_clip)" fill="none" points="4920.5,3960.4999999999995 4880.5,3960.4999999999995 4880.5,4000.4999999999995 4920.5,4000.4999999999995 4920.5,4040.4999999999995 4880.5,4040.4999999999995 4880.5,4080.4999999999995 4840.5,4080.4999999999995 4840.5,4040.4999999999995 4800.5,4040.4999999999995 4800.5,4080.4999999999995 4840.5,4080.4999999999995 4840.5,4120.5 4880.5,4120.5 4880.5,4080.4999999999995 4920.5,4080.4999999999995 4920.5,4120.5 4880.5,4120.5 4880.5,4160.5 4920.5,4160.5 4920.5,4200.5 4880.5,4200.5 4880.5,4240.5 4840.5,4240.5 4840.5,4200.5 4880.5,4200.5 4880.5,4160.5 4840.5,4160.5 4840.5,4120.5 4800.5,4120.5 4800.5,4160.5 4760.5,4160.5 4760.5,4120.5 4720.5,4120.5 4720.5,4160.5 4760.5,4160.5 4760.499999999999,4200.5 4720.5,4200.5 4720.5,4240.5 4680.5,4240.5 4680.5,4200.5 4720.5,4200.5 4720.5,4160.5" stroke="black" stroke-linecap="round" stroke-width="10" /><polyline clip-path="url(#border_clip)" fill="none" points="4720.5,4160.5 4680.5,4160.5 4680.5,4120.5 4640.5,4120.5 4640.5,4160.5 4600.5,4160.5 4600.5,4120.5 4640.5,4120.5 4640.5,4080.4999999999995 4600.5,4080.4999999999995 4600.5,4040.4999999999995 4640.5,4040.4999999999995 4640.5,4000.4999999999995 4680.5,4000.4999999999995 4680.5,4040.4999999999995 4640.5,4040.4999999999995 4640.5,4080.4999999999995 4680.5,4080.4999999999995 4680.5,4120.5 4720.5,4120.5 4720.5,4080.4999999999995 4760.5,4080.4999999999995 4760.5,4120.5 4800.5,4120.5 4800.5,4080.4999999999995 4760.5,4080.4999999999995 4760.5,4040.4999999999995 4800.5,4040.4999999999995 4800.5,4000.4999999999995 4840.5,4000.4999999999995 4840.5,4040.4999999999995 4880.5,4040.4999999999995 4880.5,4000.4999999999995 4840.5,4000.4999999999995 4840.5,3960.4999999999995 4800.5,3960.4999999999995 4800.499999999999,4000.4999999999995 4760.499999999999,4000.4999999999995 4760.499999999999,3960.4999999999995 4800.499999999999,3960.4999999999995 4800.499999999999,3920.4999999999995 4760.499999999999,3920.4999999999995 4760.499999999999,3880.4999999999995" stroke="black" stroke-linecap="round" stroke-width="10" /><polyline clip-path="url(#border_clip)" fill="none" points="4760.499999999999,3880.4999999999995 4800.499999999999,3880.4999999999995 4800.499999999999,3840.4999999999995 4840.499999999999,3840.4999999999995 4840.499999999999,3880.4999999999995 4880.499999999999,3880.4999999999995 4880.499999999999,3840.4999999999995 4840.5,3840.4999999999995 4840.5,3800.4999999999995 4800.5,3800.4999999999995 4800.499999999999,3840.4999999999995 4760.499999999999,3840.4999999999995 4760.499999999999,3800.4999999999995 4720.5,3800.4999999999995 4720.5,3840.4999999999995 4760.5,3840.4999999999995 4760.499999999999,3880.4999999999995 4720.5,3880.4999999999995 4720.5,3920.4999999999995 4680.5,3920.4999999999995 4680.5,3880.4999999999995 4720.5,3880.4999999999995 4720.5,3840.4999999999995 4680.5,3840.4999999999995 4680.5,3800.4999999999995 4640.5,3800.4999999999995 4640.5,3840.4999999999995 4600.5,3840.4999999999995 4600.5,3800.4999999999995 4640.5,3800.4999999999995 4640.5,3760.4999999999995 4600.5,3760.4999999999995 4600.5,3720.4999999999995 4640.5,3720.4999999999995 4640.5,3680.4999999999995 4680.5,3680.4999999999995 4680.5,3720.4999999999995 4640.5,3720.4999999999995 4640.5,3760.4999999999995 4680.5,3760.4999999999995 4680.5,3800.4999999999995 4720.5,3800.4999999999995 4720.5,3760.4999999999995" stroke="black" stroke-linecap="round" stroke-width="10" /><polyline clip-path="url(#border_clip)" fill="none" points="4720.5,3760.4999999999995 4760.5,3760.4999999999995 4760.5,3800.4999999999995 4800.5,3800.4999999999995 4800.5,3760.4999999999995 4760.5,3760.4999999999995 4760.5,3720.4999999999995 4800.5,3720.4999999999995 4800.5,3680.4999999999995 4840.5,3680.4999999999995 4840.5,3720.4999999999995 4880.5,3720.4999999999995 4880.5,3680.4999999999995 4840.5,3680.4999999999995 4840.5,3640.4999999999995 4800.5,3640.4999999999995 4800.499999999999,3680.4999999999995 4760.499999999999,3680.4999999999995 4760.499999999999,3640.4999999999995 4800.499999999999,3640.4999999999995 4800.499999999999,3600.4999999999995 4760.499999999999,3600.4999999999995 4760.499999999999,3560.4999999999995 4800.499999999999,3560.4999999999995 4800.499999999999,3520.4999999999995 4840.499999999999,3520.4999999999995 4840.499999999999,3560.4999999999995 4800.499999999999,3560.4999999999995 4800.499999999999,3600.4999999999995 4840.499999999999,3600.4999999999995 4840.499999999999,3640.4999999999995 4880.499999999999,3640.4999999999995 4880.499999999999,3600.4999999999995 4920.499999999999,3600.4999999999995 4920.499999999999,3640.4999999999995 4960.499999999999,3640.4999999999995 4960.499999999999,3600.4999999999995 4920.499999999999,3600.4999999999995 4920.5,3560.4999999999995 4960.5,3560.4999999999995 4960.5,3520.4999999999995 5000.5,3520.4999999999995 5000.5,3560.4999999999995" stroke="black" stroke-linecap="round" stroke-width="10" /><polyline clip-path="url(#border_clip)" fill="none" points="5000.5,3560.4999999999995 4960.5,3560.4999999999995 4960.5,3600.4999999999995 5000.5,3600.4999999999995 5000.499999999999,3640.4999999999995 5040.499999999999,3640.4999999999995 5040.5,3600.4999999999995 5080.5,3600.4999999999995 5080.499999999999,3640.4999999999995 5040.499999999999,3640.4999999999995 5040.499999999999,3680.4999999999995 5080.499999999999,3680.4999999999995 5080.499999999999,3720.4999999999995 5040.499999999999,3720.4999999999995 5040.499999999999,3760.4999999999995 5000.499999999999,3760.4999999999995 5000.499999999999,3720.4999999999995" stroke="black" stroke-linecap="round" stroke-width="10" /><polyline clip-path="url(#border_clip)" fill="none" points="5000.5,5000.5 5040.5,5000.5 5040.5,4960.5 5000.5,4960.5 5000.5,4920.5 4960.5,4920.5 4960.5,4960.5 4920.5,4960.5 4920.5,4920.5 4880.5,4920.5 4880.5,4960.5 4920.5,4960.5 4920.5,5000.5 4880.5,5000.5 4880.5,5040.5 4840.5,5040.5 4840.5,5000.5 4800.5,5000.5 4800.5,5040.5 4840.5,5040.5 4840.5,5080.5 4880.5,5080.5 4880.5,5040.5 4920.5,5040.5 4920.5,5080.5 4880.5,5080.5 4880.5,5120.5 4920.5,5120.5 4920.5,5160.5 4880.5,5160.5 4880.5,5200.5 4840.5,5200.5 4840.5,5160.5 4800.5,5160.5 4800.5,5200.5 4840.5,5200.5 4840.5,5240.5 4880.5,5240.5 4880.5,5200.5 4920.5,5200.5 4920.5,5240.5 4960.5,5240.5 4960.5,5200.5" stroke="black" stroke-linecap="round" stroke-width="10" /></svg>