<?xml version="1.0" encoding="utf-8" ?>
<svg baseProfile="full" height="5000px" version="1.1" width="5000px" xmlns="http://www.w3.org/2000/svg" xmlns:ev="http://www.w3.org/2001/xml-events" xmlns:xlink="http://www.w3.org/1999/xlink"><defs><clipPath id="border_clip"><rect height="5000" width="5000" x="0" y="0" /></clipPath></defs><polyline clip-path="url(#border_clip)" fill="none" points="2500.5,2500.5 2540.5,2500.5 2540.5,2460.5 2500.5,2460.5 2500.5,2420.5 2460.5,2420.5 2460.5,2460.5 2420.5,2460.5 2420.5,2420.5 2380.5,2420.5 2380.5,2460.5 2420.5,2460.5 2420.5,2500.5 2380.5,2500.5 2380.5,2540.5 2340.5,2540.5 2340.5,2500.5 2300.5,2500.5 2300.5,2540.5 2340.5,2540.5 2340.5,2580.5 2380.5,2580.5 2380.5,2540.5 2420.5,2540.5 2420.5,2580.5 2380.5,2580.5 2380.5,2620.5 2420.5,2620.5 2420.5,2660.5 2380.5,2660.5 2380.5,2700.5 2340.5,2700.5 2340.5,2660.5" stroke="black" stroke-linecap="round" stroke-width="10" /></svg>