<?xml version="1.0" encoding="utf-8"?>
<!-- Generator: Adobe Illustrator 27.0.0, SVG Export Plug-In . SVG Version: 6.00 Build 0)  -->
<svg version="1.1" id="Layer_1" xmlns:ev="http://www.w3.org/2001/xml-events"
	 xmlns="http://www.w3.org/2000/svg" xmlns:xlink="http://www.w3.org/1999/xlink" x="0px" y="0px" viewBox="0 0 6000 6000"
	 style="enable-background:new 0 0 6000 6000;" xml:space="preserve">
<style type="text/css">
	.st0{fill:none;stroke:#000000;stroke-width:10;stroke-linecap:round;}
</style>
<g>
	<defs>
		<rect id="SVGID_1_" width="6000" height="6000"/>
	</defs>
	<clipPath id="SVGID_00000129203201581534734000000007627228904787064491_">
		<use xlink:href="#SVGID_1_"  style="overflow:visible;"/>
	</clipPath>
</g>
<g>
	<defs>
		<rect id="SVGID_00000173126397996600870150000007718446348944704392_" width="6000" height="6000"/>
	</defs>
	<clipPath id="SVGID_00000037675056611109893190000001475167729321367192_">
		<use xlink:href="#SVGID_00000173126397996600870150000007718446348944704392_"  style="overflow:visible;"/>
	</clipPath>
</g>
<polyline class="st0" points="3105,2878 3145,2878 3145,2838 3105,2838 3105,2798 3065,2798 3065,2838 3025,2838 3025,2798 
	2985,2798 2985,2838 3025,2838 3025,2878 2985,2878 2985,2918 2945,2918 2945,2878 2905,2878 2905,2918 2945,2918 2945,2958 
	2985,2958 2985,2918 3025,2918 3025,2958 2985,2958 2985,2998 3025,2998 3025,3038 2985,3038 2985,3078 2945,3078 2945,3038 
	2905,3038 2905,3078 2945,3078 2945,3118 2985,3118 2985,3078 3025,3078 3025,3118 3065,3118 3065,3078 3025,3078 3025,3038 
	3065,3038 3065,2998 3105,2998 3105,3038 3065,3038 3065,3078 3105,3078 3105,3118 3145,3118 3145,3078 3185,3078 3185,3118 
	3145,3118 3145,3158 3185,3158 3185,3198 3145,3198 3145,3238 3105,3238 3105,3198 "/>
</svg>
