<?xml version="1.0" encoding="utf-8"?>
<!-- Generator: Adobe Illustrator 27.0.0, SVG Export Plug-In . SVG Version: 6.00 Build 0)  -->
<svg version="1.1" id="Layer_1" xmlns:ev="http://www.w3.org/2001/xml-events"
	 xmlns="http://www.w3.org/2000/svg" xmlns:xlink="http://www.w3.org/1999/xlink" x="0px" y="0px" viewBox="0 0 7000 7000"
	 style="enable-background:new 0 0 7000 7000;" xml:space="preserve">
<style type="text/css">
	.st0{fill:none;stroke:#000000;stroke-width:10;stroke-linecap:round;}
</style>
<g>
	<defs>
		<rect id="SVGID_1_" width="7000" height="7000"/>
	</defs>
	<clipPath id="SVGID_00000078014396904170683960000007277301690417252752_">
		<use xlink:href="#SVGID_1_"  style="overflow:visible;"/>
	</clipPath>
</g>
<g>
	<defs>
		<rect id="SVGID_00000152235129744121480710000008145140184132945848_" width="7000" height="7000"/>
	</defs>
	<clipPath id="SVGID_00000009562166208009580390000002568666251169507978_">
		<use xlink:href="#SVGID_00000152235129744121480710000008145140184132945848_"  style="overflow:visible;"/>
	</clipPath>
</g>
<g>
	<defs>
		<rect id="SVGID_00000151519996638448310070000012582609244024080800_" width="7000" height="7000"/>
	</defs>
	<clipPath id="SVGID_00000160153385633290008770000002130688450417210773_">
		<use xlink:href="#SVGID_00000151519996638448310070000012582609244024080800_"  style="overflow:visible;"/>
	</clipPath>
</g>
<g>
	<defs>
		<rect id="SVGID_00000052793493736379850650000016171563831300179079_" width="7000" height="7000"/>
	</defs>
	<clipPath id="SVGID_00000071523312496458048350000007602560542015717565_">
		<use xlink:href="#SVGID_00000052793493736379850650000016171563831300179079_"  style="overflow:visible;"/>
	</clipPath>
</g>
<polyline class="st0" points="3500.5,3500.5 3540.5,3500.5 3540.5,3460.5 3500.5,3460.5 3500.5,3420.5 3460.5,3420.5 3460.5,3460.5 
	3420.5,3460.5 3420.5,3420.5 3380.5,3420.5 3380.5,3460.5 3420.5,3460.5 3420.5,3500.5 3380.5,3500.5 3380.5,3540.5 3340.5,3540.5 
	3340.5,3500.5 3300.5,3500.5 3300.5,3540.5 3340.5,3540.5 3340.5,3580.5 3380.5,3580.5 3380.5,3540.5 3420.5,3540.5 3420.5,3580.5 
	3380.5,3580.5 3380.5,3620.5 3420.5,3620.5 3420.5,3660.5 3380.5,3660.5 3380.5,3700.5 3340.5,3700.5 3340.5,3660.5 3300.5,3660.5 
	3300.5,3700.5 3340.5,3700.5 3340.5,3740.5 3380.5,3740.5 3380.5,3700.5 3420.5,3700.5 3420.5,3740.5 3460.5,3740.5 3460.5,3700.5 
	3420.5,3700.5 3420.5,3660.5 3460.5,3660.5 3460.5,3620.5 3500.5,3620.5 3500.5,3660.5 3460.5,3660.5 3460.5,3700.5 3500.5,3700.5 
	3500.5,3740.5 3540.5,3740.5 3540.5,3700.5 3580.5,3700.5 3580.5,3740.5 3540.5,3740.5 3540.5,3780.5 3580.5,3780.5 3580.5,3820.5 
	3540.5,3820.5 3540.5,3860.5 3500.5,3860.5 3500.5,3820.5 3460.5,3820.5 3460.5,3860.5 3500.5,3860.5 3500.5,3900.5 3540.5,3900.5 
	3540.5,3860.5 3580.5,3860.5 3580.5,3900.5 3620.5,3900.5 3620.5,3860.5 3580.5,3860.5 3580.5,3820.5 3620.5,3820.5 3620.5,3780.5 
	3660.5,3780.5 3660.5,3820.5 3700.5,3820.5 3700.5,3780.5 3660.5,3780.5 3660.5,3740.5 3620.5,3740.5 3620.5,3780.5 3580.5,3780.5 
	3580.5,3740.5 3620.5,3740.5 3620.5,3700.5 3580.5,3700.5 3580.5,3660.5 3620.5,3660.5 3620.5,3620.5 3660.5,3620.5 3660.5,3660.5 
	3620.5,3660.5 3620.5,3700.5 3660.5,3700.5 3660.5,3740.5 3700.5,3740.5 3700.5,3700.5 3740.5,3700.5 3740.5,3740.5 3780.5,3740.5 
	3780.5,3700.5 3740.5,3700.5 3740.5,3660.5 3780.5,3660.5 3780.5,3620.5 3820.5,3620.5 3820.5,3660.5 3780.5,3660.5 3780.5,3700.5 
	3820.5,3700.5 3820.5,3740.5 3860.5,3740.5 3860.5,3700.5 3900.5,3700.5 3900.5,3740.5 3860.5,3740.5 3860.5,3780.5 3900.5,3780.5 
	3900.5,3820.5 3860.5,3820.5 3860.5,3860.5 3820.5,3860.5 3820.5,3820.5 "/>
</svg>
