<?xml version="1.0" encoding="utf-8"?>
<!-- Generator: Adobe Illustrator 27.0.0, SVG Export Plug-In . SVG Version: 6.00 Build 0)  -->
<svg version="1.1" id="Layer_1" xmlns:ev="http://www.w3.org/2001/xml-events"
	 xmlns="http://www.w3.org/2000/svg" xmlns:xlink="http://www.w3.org/1999/xlink" x="0px" y="0px" viewBox="0 0 8000 8000"
	 style="enable-background:new 0 0 8000 8000;" xml:space="preserve">
<style type="text/css">
	.st0{fill:none;stroke:#000000;stroke-width:10;stroke-linecap:round;}
</style>
<g>
	<defs>
		<rect id="SVGID_1_" width="8000" height="8000"/>
	</defs>
	<clipPath id="SVGID_00000121975134693873039080000011193634795545451691_">
		<use xlink:href="#SVGID_1_"  style="overflow:visible;"/>
	</clipPath>
</g>
<g>
	<defs>
		<rect id="SVGID_00000127023765097364843670000012080469466762517690_" width="8000" height="8000"/>
	</defs>
	<clipPath id="SVGID_00000031906084808874919360000004018163571465807232_">
		<use xlink:href="#SVGID_00000127023765097364843670000012080469466762517690_"  style="overflow:visible;"/>
	</clipPath>
</g>
<g>
	<defs>
		<rect id="SVGID_00000117653510041390905160000015812507191659399070_" width="8000" height="8000"/>
	</defs>
	<clipPath id="SVGID_00000121995373561375790180000017594190519569987764_">
		<use xlink:href="#SVGID_00000117653510041390905160000015812507191659399070_"  style="overflow:visible;"/>
	</clipPath>
</g>
<g>
	<defs>
		<rect id="SVGID_00000172431866629075172930000004592008676302175919_" width="8000" height="8000"/>
	</defs>
	<clipPath id="SVGID_00000149356985556936729580000000229322201990417832_">
		<use xlink:href="#SVGID_00000172431866629075172930000004592008676302175919_"  style="overflow:visible;"/>
	</clipPath>
</g>
<g>
	<defs>
		<rect id="SVGID_00000094583568652134377280000012548445814187271821_" width="8000" height="8000"/>
	</defs>
	<clipPath id="SVGID_00000183212621939861927460000018379387265061339271_">
		<use xlink:href="#SVGID_00000094583568652134377280000012548445814187271821_"  style="overflow:visible;"/>
	</clipPath>
</g>
<g>
	<defs>
		<rect id="SVGID_00000160167276270775217160000013876631785206911110_" width="8000" height="8000"/>
	</defs>
	<clipPath id="SVGID_00000047776509812498746490000004507020133261822859_">
		<use xlink:href="#SVGID_00000160167276270775217160000013876631785206911110_"  style="overflow:visible;"/>
	</clipPath>
</g>
<g>
	<defs>
		<rect id="SVGID_00000073689941464019436760000009788771965676738454_" width="8000" height="8000"/>
	</defs>
	<clipPath id="SVGID_00000172429749692630172900000011008245241951437974_">
		<use xlink:href="#SVGID_00000073689941464019436760000009788771965676738454_"  style="overflow:visible;"/>
	</clipPath>
</g>
<polyline class="st0" points="4000.5,4000.5 4040.5,4000.5 4040.5,3960.5 4000.5,3960.5 4000.5,3920.5 3960.5,3920.5 3960.5,3960.5 
	3920.5,3960.5 3920.5,3920.5 3880.5,3920.5 3880.5,3960.5 3920.5,3960.5 3920.5,4000.5 3880.5,4000.5 3880.5,4040.5 3840.5,4040.5 
	3840.5,4000.5 3800.5,4000.5 3800.5,4040.5 3840.5,4040.5 3840.5,4080.5 3880.5,4080.5 3880.5,4040.5 3920.5,4040.5 3920.5,4080.5 
	3880.5,4080.5 3880.5,4120.5 3920.5,4120.5 3920.5,4160.5 3880.5,4160.5 3880.5,4200.5 3840.5,4200.5 3840.5,4160.5 3800.5,4160.5 
	3800.5,4200.5 3840.5,4200.5 3840.5,4240.5 3880.5,4240.5 3880.5,4200.5 3920.5,4200.5 3920.5,4240.5 3960.5,4240.5 3960.5,4200.5 
	3920.5,4200.5 3920.5,4160.5 3960.5,4160.5 3960.5,4120.5 4000.5,4120.5 4000.5,4160.5 3960.5,4160.5 3960.5,4200.5 4000.5,4200.5 
	4000.5,4240.5 4040.5,4240.5 4040.5,4200.5 4080.5,4200.5 4080.5,4240.5 4040.5,4240.5 4040.5,4280.5 4080.5,4280.5 4080.5,4320.5 
	4040.5,4320.5 4040.5,4360.5 4000.5,4360.5 4000.5,4320.5 3960.5,4320.5 3960.5,4360.5 4000.5,4360.5 4000.5,4400.5 4040.5,4400.5 
	4040.5,4360.5 4080.5,4360.5 4080.5,4400.5 4120.5,4400.5 4120.5,4360.5 4080.5,4360.5 4080.5,4320.5 4120.5,4320.5 4120.5,4280.5 
	4160.5,4280.5 4160.5,4320.5 4200.5,4320.5 4200.5,4280.5 4160.5,4280.5 4160.5,4240.5 4120.5,4240.5 4120.5,4280.5 4080.5,4280.5 
	4080.5,4240.5 4120.5,4240.5 4120.5,4200.5 4080.5,4200.5 4080.5,4160.5 4120.5,4160.5 4120.5,4120.5 4160.5,4120.5 4160.5,4160.5 
	4120.5,4160.5 4120.5,4200.5 4160.5,4200.5 4160.5,4240.5 4200.5,4240.5 4200.5,4200.5 4240.5,4200.5 4240.5,4240.5 4280.5,4240.5 
	4280.5,4200.5 4240.5,4200.5 4240.5,4160.5 4280.5,4160.5 4280.5,4120.5 4320.5,4120.5 4320.5,4160.5 4280.5,4160.5 4280.5,4200.5 
	4320.5,4200.5 4320.5,4240.5 4360.5,4240.5 4360.5,4200.5 4400.5,4200.5 4400.5,4240.5 4360.5,4240.5 4360.5,4280.5 4400.5,4280.5 
	4400.5,4320.5 4360.5,4320.5 4360.5,4360.5 4320.5,4360.5 4320.5,4320.5 4280.5,4320.5 4280.5,4360.5 4320.5,4360.5 4320.5,4400.5 
	4360.5,4400.5 4360.5,4360.5 4400.5,4360.5 4400.5,4400.5 4440.5,4400.5 4440.5,4360.5 4400.5,4360.5 4400.5,4320.5 4440.5,4320.5 
	4440.5,4280.5 4480.5,4280.5 4480.5,4320.5 4520.5,4320.5 4520.5,4280.5 4480.5,4280.5 4480.5,4240.5 4440.5,4240.5 4440.5,4280.5 
	4400.5,4280.5 4400.5,4240.5 4440.5,4240.5 4440.5,4200.5 4400.5,4200.5 4400.5,4160.5 4440.5,4160.5 4440.5,4120.5 4480.5,4120.5 
	4480.5,4160.5 4520.5,4160.5 4520.5,4120.5 4480.5,4120.5 4480.5,4080.5 4440.5,4080.5 4440.5,4120.5 4400.5,4120.5 4400.5,4080.5 
	4360.5,4080.5 4360.5,4120.5 4400.5,4120.5 4400.5,4160.5 4360.5,4160.5 4360.5,4200.5 4320.5,4200.5 4320.5,4160.5 4360.5,4160.5 
	4360.5,4120.5 4320.5,4120.5 4320.5,4080.5 4280.5,4080.5 4280.5,4120.5 4240.5,4120.5 4240.5,4080.5 4280.5,4080.5 4280.5,4040.5 
	4240.5,4040.5 4240.5,4000.5 4280.5,4000.5 4280.5,3960.5 4320.5,3960.5 4320.5,4000.5 4280.5,4000.5 4280.5,4040.5 4320.5,4040.5 
	4320.5,4080.5 4360.5,4080.5 4360.5,4040.5 4400.5,4040.5 4400.5,4080.5 4440.5,4080.5 4440.5,4040.5 4400.5,4040.5 4400.5,4000.5 
	4440.5,4000.5 4440.5,3960.5 4480.5,3960.5 4480.5,4000.5 4520.5,4000.5 4520.5,3960.5 4480.5,3960.5 4480.5,3920.5 4440.5,3920.5 
	4440.5,3960.5 4400.5,3960.5 4400.5,3920.5 4440.5,3920.5 4440.5,3880.5 4400.5,3880.5 4400.5,3840.5 4440.5,3840.5 4440.5,3800.5 
	4480.5,3800.5 4480.5,3840.5 4440.5,3840.5 4440.5,3880.5 4480.5,3880.5 4480.5,3920.5 4520.5,3920.5 4520.5,3880.5 4560.5,3880.5 
	4560.5,3920.5 4600.5,3920.5 4600.5,3880.5 4560.5,3880.5 4560.5,3840.5 4600.5,3840.5 4600.5,3800.5 4640.5,3800.5 4640.5,3840.5 
	4600.5,3840.5 4600.5,3880.5 4640.5,3880.5 4640.5,3920.5 4680.5,3920.5 4680.5,3880.5 4720.5,3880.5 4720.5,3920.5 4680.5,3920.5 
	4680.5,3960.5 4720.5,3960.5 4720.5,4000.5 4680.5,4000.5 4680.5,4040.5 4640.5,4040.5 4640.5,4000.5 "/>
</svg>
