<?xml version="1.0" encoding="utf-8"?>
<!-- Generator: Adobe Illustrator 27.0.0, SVG Export Plug-In . SVG Version: 6.00 Build 0)  -->
<svg version="1.1" id="Layer_1" xmlns:ev="http://www.w3.org/2001/xml-events"
	 xmlns="http://www.w3.org/2000/svg" xmlns:xlink="http://www.w3.org/1999/xlink" x="0px" y="0px" viewBox="0 0 9000 9000"
	 style="enable-background:new 0 0 9000 9000;" xml:space="preserve">
<style type="text/css">
	.st0{fill:none;stroke:#000000;stroke-width:10;stroke-linecap:round;}
</style>
<g>
	<defs>
		<rect id="SVGID_1_" width="9000" height="9000"/>
	</defs>
	<clipPath id="SVGID_00000090990204151000019770000000460669239062869934_">
		<use xlink:href="#SVGID_1_"  style="overflow:visible;"/>
	</clipPath>
</g>
<g>
	<defs>
		<rect id="SVGID_00000062887326732044984850000007918745371659533965_" width="9000" height="9000"/>
	</defs>
	<clipPath id="SVGID_00000141454057125254316350000005948454837310823319_">
		<use xlink:href="#SVGID_00000062887326732044984850000007918745371659533965_"  style="overflow:visible;"/>
	</clipPath>
</g>
<g>
	<defs>
		<rect id="SVGID_00000022535542836886083910000005738598004024552111_" width="9000" height="9000"/>
	</defs>
	<clipPath id="SVGID_00000101075530437549778580000008837848747956680851_">
		<use xlink:href="#SVGID_00000022535542836886083910000005738598004024552111_"  style="overflow:visible;"/>
	</clipPath>
</g>
<g>
	<defs>
		<rect id="SVGID_00000021827576768621793440000003086293105324611769_" width="9000" height="9000"/>
	</defs>
	<clipPath id="SVGID_00000183235484407623653150000016285315952651038104_">
		<use xlink:href="#SVGID_00000021827576768621793440000003086293105324611769_"  style="overflow:visible;"/>
	</clipPath>
</g>
<g>
	<defs>
		<rect id="SVGID_00000029752081771799982650000010423489543509692046_" width="9000" height="9000"/>
	</defs>
	<clipPath id="SVGID_00000072986690644831414010000016331852686097819532_">
		<use xlink:href="#SVGID_00000029752081771799982650000010423489543509692046_"  style="overflow:visible;"/>
	</clipPath>
</g>
<g>
	<defs>
		<rect id="SVGID_00000169539458448290278400000014180864064084438434_" width="9000" height="9000"/>
	</defs>
	<clipPath id="SVGID_00000099633465452487797840000016510878806747018416_">
		<use xlink:href="#SVGID_00000169539458448290278400000014180864064084438434_"  style="overflow:visible;"/>
	</clipPath>
</g>
<g>
	<defs>
		<rect id="SVGID_00000141430961063133314840000010885332928758471328_" width="9000" height="9000"/>
	</defs>
	<clipPath id="SVGID_00000053508358982693503780000007127595163874637448_">
		<use xlink:href="#SVGID_00000141430961063133314840000010885332928758471328_"  style="overflow:visible;"/>
	</clipPath>
</g>
<g>
	<defs>
		<rect id="SVGID_00000020360723496142084500000008749823800230230657_" width="9000" height="9000"/>
	</defs>
	<clipPath id="SVGID_00000062898541827125111640000013642154356382253239_">
		<use xlink:href="#SVGID_00000020360723496142084500000008749823800230230657_"  style="overflow:visible;"/>
	</clipPath>
</g>
<g>
	<defs>
		<rect id="SVGID_00000062890571376055395590000005773726819439098511_" width="9000" height="9000"/>
	</defs>
	<clipPath id="SVGID_00000065054126202078522780000002230776471662268860_">
		<use xlink:href="#SVGID_00000062890571376055395590000005773726819439098511_"  style="overflow:visible;"/>
	</clipPath>
</g>
<g>
	<defs>
		<rect id="SVGID_00000145764915631044294170000016242310444463579576_" width="9000" height="9000"/>
	</defs>
	<clipPath id="SVGID_00000160899171781435480880000007903947842412748195_">
		<use xlink:href="#SVGID_00000145764915631044294170000016242310444463579576_"  style="overflow:visible;"/>
	</clipPath>
</g>
<g>
	<defs>
		<rect id="SVGID_00000015316399648999959720000006019733337549022600_" width="9000" height="9000"/>
	</defs>
	<clipPath id="SVGID_00000129917702139362683190000009932235812454934717_">
		<use xlink:href="#SVGID_00000015316399648999959720000006019733337549022600_"  style="overflow:visible;"/>
	</clipPath>
</g>
<g>
	<defs>
		<rect id="SVGID_00000137126688652530759450000016393731638167552921_" width="9000" height="9000"/>
	</defs>
	<clipPath id="SVGID_00000008855785477637189710000017301387708609685679_">
		<use xlink:href="#SVGID_00000137126688652530759450000016393731638167552921_"  style="overflow:visible;"/>
	</clipPath>
</g>
<g>
	<defs>
		<rect id="SVGID_00000075854893945246229350000018366784167848357812_" width="9000" height="9000"/>
	</defs>
	<clipPath id="SVGID_00000116932814810650905120000002510117526565381565_">
		<use xlink:href="#SVGID_00000075854893945246229350000018366784167848357812_"  style="overflow:visible;"/>
	</clipPath>
</g>
<polyline class="st0" points="4500.5,4500.5 4540.5,4500.5 4540.5,4460.5 4500.5,4460.5 4500.5,4420.5 4460.5,4420.5 4460.5,4460.5 
	4420.5,4460.5 4420.5,4420.5 4380.5,4420.5 4380.5,4460.5 4420.5,4460.5 4420.5,4500.5 4380.5,4500.5 4380.5,4540.5 4340.5,4540.5 
	4340.5,4500.5 4300.5,4500.5 4300.5,4540.5 4340.5,4540.5 4340.5,4580.5 4380.5,4580.5 4380.5,4540.5 4420.5,4540.5 4420.5,4580.5 
	4380.5,4580.5 4380.5,4620.5 4420.5,4620.5 4420.5,4660.5 4380.5,4660.5 4380.5,4700.5 4340.5,4700.5 4340.5,4660.5 4300.5,4660.5 
	4300.5,4700.5 4340.5,4700.5 4340.5,4740.5 4380.5,4740.5 4380.5,4700.5 4420.5,4700.5 4420.5,4740.5 4460.5,4740.5 4460.5,4700.5 
	4420.5,4700.5 4420.5,4660.5 4460.5,4660.5 4460.5,4620.5 4500.5,4620.5 4500.5,4660.5 4460.5,4660.5 4460.5,4700.5 4500.5,4700.5 
	4500.5,4740.5 4540.5,4740.5 4540.5,4700.5 4580.5,4700.5 4580.5,4740.5 4540.5,4740.5 4540.5,4780.5 4580.5,4780.5 4580.5,4820.5 
	4540.5,4820.5 4540.5,4860.5 4500.5,4860.5 4500.5,4820.5 4460.5,4820.5 4460.5,4860.5 4500.5,4860.5 4500.5,4900.5 4540.5,4900.5 
	4540.5,4860.5 4580.5,4860.5 4580.5,4900.5 4620.5,4900.5 4620.5,4860.5 4580.5,4860.5 4580.5,4820.5 4620.5,4820.5 4620.5,4780.5 
	4660.5,4780.5 4660.5,4820.5 4700.5,4820.5 4700.5,4780.5 4660.5,4780.5 4660.5,4740.5 4620.5,4740.5 4620.5,4780.5 4580.5,4780.5 
	4580.5,4740.5 4620.5,4740.5 4620.5,4700.5 4580.5,4700.5 4580.5,4660.5 4620.5,4660.5 4620.5,4620.5 4660.5,4620.5 4660.5,4660.5 
	4620.5,4660.5 4620.5,4700.5 4660.5,4700.5 4660.5,4740.5 4700.5,4740.5 4700.5,4700.5 4740.5,4700.5 4740.5,4740.5 4780.5,4740.5 
	4780.5,4700.5 4740.5,4700.5 4740.5,4660.5 4780.5,4660.5 4780.5,4620.5 4820.5,4620.5 4820.5,4660.5 4780.5,4660.5 4780.5,4700.5 
	4820.5,4700.5 4820.5,4740.5 4860.5,4740.5 4860.5,4700.5 4900.5,4700.5 4900.5,4740.5 4860.5,4740.5 4860.5,4780.5 4900.5,4780.5 
	4900.5,4820.5 4860.5,4820.5 4860.5,4860.5 4820.5,4860.5 4820.5,4820.5 4780.5,4820.5 4780.5,4860.5 4820.5,4860.5 4820.5,4900.5 
	4860.5,4900.5 4860.5,4860.5 4900.5,4860.5 4900.5,4900.5 4940.5,4900.5 4940.5,4860.5 4900.5,4860.5 4900.5,4820.5 4940.5,4820.5 
	4940.5,4780.5 4980.5,4780.5 4980.5,4820.5 5020.5,4820.5 5020.5,4780.5 4980.5,4780.5 4980.5,4740.5 4940.5,4740.5 4940.5,4780.5 
	4900.5,4780.5 4900.5,4740.5 4940.5,4740.5 4940.5,4700.5 4900.5,4700.5 4900.5,4660.5 4940.5,4660.5 4940.5,4620.5 4980.5,4620.5 
	4980.5,4660.5 5020.5,4660.5 5020.5,4620.5 4980.5,4620.5 4980.5,4580.5 4940.5,4580.5 4940.5,4620.5 4900.5,4620.5 4900.5,4580.5 
	4860.5,4580.5 4860.5,4620.5 4900.5,4620.5 4900.5,4660.5 4860.5,4660.5 4860.5,4700.5 4820.5,4700.5 4820.5,4660.5 4860.5,4660.5 
	4860.5,4620.5 4820.5,4620.5 4820.5,4580.5 4780.5,4580.5 4780.5,4620.5 4740.5,4620.5 4740.5,4580.5 4780.5,4580.5 4780.5,4540.5 
	4740.5,4540.5 4740.5,4500.5 4780.5,4500.5 4780.5,4460.5 4820.5,4460.5 4820.5,4500.5 4780.5,4500.5 4780.5,4540.5 4820.5,4540.5 
	4820.5,4580.5 4860.5,4580.5 4860.5,4540.5 4900.5,4540.5 4900.5,4580.5 4940.5,4580.5 4940.5,4540.5 4900.5,4540.5 4900.5,4500.5 
	4940.5,4500.5 4940.5,4460.5 4980.5,4460.5 4980.5,4500.5 5020.5,4500.5 5020.5,4460.5 4980.5,4460.5 4980.5,4420.5 4940.5,4420.5 
	4940.5,4460.5 4900.5,4460.5 4900.5,4420.5 4940.5,4420.5 4940.5,4380.5 4900.5,4380.5 4900.5,4340.5 4940.5,4340.5 4940.5,4300.5 
	4980.5,4300.5 4980.5,4340.5 4940.5,4340.5 4940.5,4380.5 4980.5,4380.5 4980.5,4420.5 5020.5,4420.5 5020.5,4380.5 5060.5,4380.5 
	5060.5,4420.5 5100.5,4420.5 5100.5,4380.5 5060.5,4380.5 5060.5,4340.5 5100.5,4340.5 5100.5,4300.5 5140.5,4300.5 5140.5,4340.5 
	5100.5,4340.5 5100.5,4380.5 5140.5,4380.5 5140.5,4420.5 5180.5,4420.5 5180.5,4380.5 5220.5,4380.5 5220.5,4420.5 5180.5,4420.5 
	5180.5,4460.5 5220.5,4460.5 5220.5,4500.5 5180.5,4500.5 5180.5,4540.5 5140.5,4540.5 5140.5,4500.5 5100.5,4500.5 5100.5,4540.5 
	5140.5,4540.5 5140.5,4580.5 5180.5,4580.5 5180.5,4540.5 5220.5,4540.5 5220.5,4580.5 5260.5,4580.5 5260.5,4540.5 5220.5,4540.5 
	5220.5,4500.5 5260.5,4500.5 5260.5,4460.5 5300.5,4460.5 5300.5,4500.5 5340.5,4500.5 5340.5,4460.5 5300.5,4460.5 5300.5,4420.5 
	5260.5,4420.5 5260.5,4460.5 5220.5,4460.5 5220.5,4420.5 5260.5,4420.5 5260.5,4380.5 5220.5,4380.5 5220.5,4340.5 5260.5,4340.5 
	5260.5,4300.5 5300.5,4300.5 5300.5,4340.5 5340.5,4340.5 5340.5,4300.5 5300.5,4300.5 5300.5,4260.5 5260.5,4260.5 5260.5,4300.5 
	5220.5,4300.5 5220.5,4260.5 5180.5,4260.5 5180.5,4300.5 5220.5,4300.5 5220.5,4340.5 5180.5,4340.5 5180.5,4380.5 5140.5,4380.5 
	5140.5,4340.5 5180.5,4340.5 5180.5,4300.5 5140.5,4300.5 5140.5,4260.5 5100.5,4260.5 5100.5,4300.5 5060.5,4300.5 5060.5,4260.5 
	5100.5,4260.5 5100.5,4220.5 5060.5,4220.5 5060.5,4180.5 5100.5,4180.5 5100.5,4140.5 5140.5,4140.5 5140.5,4180.5 5180.5,4180.5 
	5180.5,4140.5 5140.5,4140.5 5140.5,4100.5 5100.5,4100.5 5100.5,4140.5 5060.5,4140.5 5060.5,4100.5 5020.5,4100.5 5020.5,4140.5 
	5060.5,4140.5 5060.5,4180.5 5020.5,4180.5 5020.5,4220.5 4980.5,4220.5 4980.5,4180.5 4940.5,4180.5 4940.5,4220.5 4980.5,4220.5 
	4980.5,4260.5 5020.5,4260.5 5020.5,4220.5 5060.5,4220.5 5060.5,4260.5 5020.5,4260.5 5020.5,4300.5 5060.5,4300.5 5060.5,4340.5 
	5020.5,4340.5 5020.5,4380.5 4980.5,4380.5 4980.5,4340.5 5020.5,4340.5 5020.5,4300.5 4980.5,4300.5 4980.5,4260.5 4940.5,4260.5 
	4940.5,4300.5 4900.5,4300.5 4900.5,4260.5 4860.5,4260.5 4860.5,4300.5 4900.5,4300.5 4900.5,4340.5 4860.5,4340.5 4860.5,4380.5 
	4820.5,4380.5 4820.5,4340.5 4860.5,4340.5 4860.5,4300.5 4820.5,4300.5 4820.5,4260.5 4780.5,4260.5 4780.5,4300.5 4740.5,4300.5 
	4740.5,4260.5 4780.5,4260.5 4780.5,4220.5 4740.5,4220.5 4740.5,4180.5 4780.5,4180.5 4780.5,4140.5 4820.5,4140.5 4820.5,4180.5 
	4780.5,4180.5 4780.5,4220.5 4820.5,4220.5 4820.5,4260.5 4860.5,4260.5 4860.5,4220.5 4900.5,4220.5 4900.5,4260.5 4940.5,4260.5 
	4940.5,4220.5 4900.5,4220.5 4900.5,4180.5 4940.5,4180.5 4940.5,4140.5 4980.5,4140.5 4980.5,4180.5 5020.5,4180.5 5020.5,4140.5 
	4980.5,4140.5 4980.5,4100.5 4940.5,4100.5 4940.5,4140.5 4900.5,4140.5 4900.5,4100.5 4940.5,4100.5 4940.5,4060.5 4900.5,4060.5 
	4900.5,4020.5 4940.5,4020.5 4940.5,3980.5 4980.5,3980.5 4980.5,4020.5 5020.5,4020.5 5020.5,3980.5 4980.5,3980.5 4980.5,3940.5 
	4940.5,3940.5 4940.5,3980.5 4900.5,3980.5 4900.5,3940.5 4860.5,3940.5 4860.5,3980.5 4900.5,3980.5 4900.5,4020.5 4860.5,4020.5 
	4860.5,4060.5 4820.5,4060.5 4820.5,4020.5 4860.5,4020.5 4860.5,3980.5 4820.5,3980.5 4820.5,3940.5 4780.5,3940.5 4780.5,3980.5 
	4740.5,3980.5 4740.5,3940.5 4780.5,3940.5 4780.5,3900.5 4740.5,3900.5 4740.5,3860.5 4780.5,3860.5 4780.5,3820.5 4820.5,3820.5 
	4820.5,3860.5 4780.5,3860.5 4780.5,3900.5 4820.5,3900.5 4820.5,3940.5 4860.5,3940.5 4860.5,3900.5 4900.5,3900.5 4900.5,3940.5 
	4940.5,3940.5 4940.5,3900.5 4900.5,3900.5 4900.5,3860.5 4940.5,3860.5 4940.5,3820.5 4980.5,3820.5 4980.5,3860.5 5020.5,3860.5 
	5020.5,3820.5 4980.5,3820.5 4980.5,3780.5 4940.5,3780.5 4940.5,3820.5 4900.5,3820.5 4900.5,3780.5 4940.5,3780.5 4940.5,3740.5 
	4900.5,3740.5 4900.5,3700.5 4940.5,3700.5 4940.5,3660.5 4980.5,3660.5 4980.5,3700.5 4940.5,3700.5 4940.5,3740.5 4980.5,3740.5 
	4980.5,3780.5 5020.5,3780.5 5020.5,3740.5 5060.5,3740.5 5060.5,3780.5 5100.5,3780.5 5100.5,3740.5 5060.5,3740.5 5060.5,3700.5 
	5100.5,3700.5 5100.5,3660.5 5140.5,3660.5 5140.5,3700.5 5100.5,3700.5 5100.5,3740.5 5140.5,3740.5 5140.5,3780.5 5180.5,3780.5 
	5180.5,3740.5 5220.5,3740.5 5220.5,3780.5 5180.5,3780.5 5180.5,3820.5 5220.5,3820.5 5220.5,3860.5 5180.5,3860.5 5180.5,3900.5 
	5140.5,3900.5 5140.5,3860.5 "/>
</svg>
